<?xml version="1.0" encoding="utf-8"?>
<!-- Generator: Adobe Illustrator 21.0.0, SVG Export Plug-In . SVG Version: 6.00 Build 0)  -->
<svg version="1.1" id="Layer_1" xmlns="http://www.w3.org/2000/svg" xmlns:xlink="http://www.w3.org/1999/xlink" x="0px" y="0px"
	 viewBox="0 0 24 24" style="enable-background:new 0 0 24 24;" xml:space="preserve">
<style type="text/css">
	.st0{fill:#727272;}
</style>
<path class="st0" d="M12,0C5.4,0,0,5.4,0,12s5.4,12,12,12s12-5.4,12-12S18.6,0,12,0z M19.8,18.3c-0.3-0.6-0.8-1-1.9-1.2
	c-2.3-0.5-4.4-1-3.4-2.9C17.6,8.2,15.3,5,12,5c-3.4,0-5.6,3.3-2.5,9.1c1.1,2-1.1,2.4-3.4,2.9c-1.1,0.2-1.6,0.7-1.9,1.2
	C2.8,16.6,2,14.4,2,12C2,6.5,6.5,2,12,2s10,4.5,10,10C22,14.4,21.2,16.6,19.8,18.3z"/>
</svg>
